<svg xmlns="http://www.w3.org/2000/svg" viewBox="0 0 600 600" preserveAspectRatio="xMidYMid slice"><rect x="0" y="0" width="600" height="600" rx="0" fill="#eaf0dd" /><circle cx="300.0" cy="300.0" r="218" fill="#f3f6e8" /><circle cx="300.0" cy="300.0" r="218" fill="none" stroke="#4a6b3a" stroke-width="2.5"/><g transform="translate(300 420) scale(1.5)"><rect x="-41" y="-118" width="14" height="60" rx="7" fill="#c98a5e" /><rect x="-24" y="-132" width="14" height="60" rx="7" fill="#c98a5e" /><rect x="-7" y="-132" width="14" height="60" rx="7" fill="#c98a5e" /><rect x="10" y="-118" width="14" height="60" rx="7" fill="#c98a5e" /><rect x="28" y="-96" width="14" height="44" rx="7" fill="#c98a5e" transform="rotate(-24 35 -74)"/><path d="M -42 -70 Q -44 -10 0 -4 Q 44 -10 42 -70 Q 20 -84 0 -84 Q -20 -84 -42 -70 Z" fill="#c98a5e" /><circle cx="0.0" cy="-46.0" r="17" fill="none" stroke="#7a4a2b" stroke-width="2.4"/><circle cx="0.0" cy="-46.0" r="9" fill="none" stroke="#7a4a2b" stroke-width="1.6"/><circle cx="0.0" cy="-46.0" r="3" fill="#7a4a2b" /><circle cx="23.0" cy="-46.0" r="2.2" fill="#7a4a2b" /><circle cx="16.3" cy="-29.7" r="2.2" fill="#7a4a2b" /><circle cx="0.0" cy="-23.0" r="2.2" fill="#7a4a2b" /><circle cx="-16.3" cy="-29.7" r="2.2" fill="#7a4a2b" /><circle cx="-23.0" cy="-46.0" r="2.2" fill="#7a4a2b" /><circle cx="-16.3" cy="-62.3" r="2.2" fill="#7a4a2b" /><circle cx="-0.0" cy="-69.0" r="2.2" fill="#7a4a2b" /><circle cx="16.3" cy="-62.3" r="2.2" fill="#7a4a2b" /><path d="M -30 -22 q 12 10 60 0" fill="none" stroke="#7a4a2b" stroke-width="2"/><path d="M -26 -14 q 10 8 52 0" fill="none" stroke="#7a4a2b" stroke-width="1.4"/><circle cx="-34.0" cy="-86.0" r="2.4" fill="#7a4a2b" /><circle cx="-17.0" cy="-86.0" r="2.4" fill="#7a4a2b" /><circle cx="0.0" cy="-86.0" r="2.4" fill="#7a4a2b" /><circle cx="17.0" cy="-86.0" r="2.4" fill="#7a4a2b" /><path d="M -38 -98 q 4 4 8 0" fill="none" stroke="#7a4a2b" stroke-width="1.6"/><path d="M -21 -110 q 4 4 8 0" fill="none" stroke="#7a4a2b" stroke-width="1.6"/><path d="M -4 -110 q 4 4 8 0" fill="none" stroke="#7a4a2b" stroke-width="1.6"/><path d="M 13 -98 q 4 4 8 0" fill="none" stroke="#7a4a2b" stroke-width="1.6"/></g></svg>