<svg xmlns="http://www.w3.org/2000/svg" viewBox="0 0 800 1000" preserveAspectRatio="xMidYMid slice"><rect x="0" y="0" width="800" height="1000" rx="0" fill="#fdf3e0" /><g ><circle cx="400" cy="500" r="360" fill="none" stroke="#b03a48" stroke-width="1.6" opacity="0.5"/><circle cx="400" cy="500" r="295.2" fill="none" stroke="#b03a48" stroke-width="1" opacity="0.4"/><path d="M 709.6 500.0 m -6 0 q 6 12 12 0 q -6 -6 -12 0 Z" fill="#b03a48" opacity="0.275" transform="rotate(90 709.6 500.0)"/><path d="M 699.1 580.1 m -6 0 q 6 -12 12 0 q -6 6 -12 0 Z" fill="#b03a48" opacity="0.275" transform="rotate(105 699.1 580.1)"/><path d="M 668.1 654.8 m -6 0 q 6 12 12 0 q -6 -6 -12 0 Z" fill="#b03a48" opacity="0.275" transform="rotate(120 668.1 654.8)"/><path d="M 618.9 718.9 m -6 0 q 6 -12 12 0 q -6 6 -12 0 Z" fill="#b03a48" opacity="0.275" transform="rotate(135 618.9 718.9)"/><path d="M 554.8 768.1 m -6 0 q 6 12 12 0 q -6 -6 -12 0 Z" fill="#b03a48" opacity="0.275" transform="rotate(150 554.8 768.1)"/><path d="M 480.1 799.1 m -6 0 q 6 -12 12 0 q -6 6 -12 0 Z" fill="#b03a48" opacity="0.275" transform="rotate(165 480.1 799.1)"/><path d="M 400.0 809.6 m -6 0 q 6 12 12 0 q -6 -6 -12 0 Z" fill="#b03a48" opacity="0.275" transform="rotate(180 400.0 809.6)"/><path d="M 319.9 799.1 m -6 0 q 6 -12 12 0 q -6 6 -12 0 Z" fill="#b03a48" opacity="0.275" transform="rotate(195 319.9 799.1)"/><path d="M 245.2 768.1 m -6 0 q 6 12 12 0 q -6 -6 -12 0 Z" fill="#b03a48" opacity="0.275" transform="rotate(210 245.2 768.1)"/><path d="M 181.1 718.9 m -6 0 q 6 -12 12 0 q -6 6 -12 0 Z" fill="#b03a48" opacity="0.275" transform="rotate(225 181.1 718.9)"/><path d="M 131.9 654.8 m -6 0 q 6 12 12 0 q -6 -6 -12 0 Z" fill="#b03a48" opacity="0.275" transform="rotate(240.00000000000003 131.9 654.8)"/><path d="M 100.9 580.1 m -6 0 q 6 -12 12 0 q -6 6 -12 0 Z" fill="#b03a48" opacity="0.275" transform="rotate(254.99999999999997 100.9 580.1)"/><path d="M 90.4 500.0 m -6 0 q 6 12 12 0 q -6 -6 -12 0 Z" fill="#b03a48" opacity="0.275" transform="rotate(270 90.4 500.0)"/><path d="M 100.9 419.9 m -6 0 q 6 -12 12 0 q -6 6 -12 0 Z" fill="#b03a48" opacity="0.275" transform="rotate(285 100.9 419.9)"/><path d="M 131.9 345.2 m -6 0 q 6 12 12 0 q -6 -6 -12 0 Z" fill="#b03a48" opacity="0.275" transform="rotate(300 131.9 345.2)"/><path d="M 181.1 281.1 m -6 0 q 6 -12 12 0 q -6 6 -12 0 Z" fill="#b03a48" opacity="0.275" transform="rotate(315 181.1 281.1)"/><path d="M 245.2 231.9 m -6 0 q 6 12 12 0 q -6 -6 -12 0 Z" fill="#b03a48" opacity="0.275" transform="rotate(330 245.2 231.9)"/><path d="M 319.9 200.9 m -6 0 q 6 -12 12 0 q -6 6 -12 0 Z" fill="#b03a48" opacity="0.275" transform="rotate(345 319.9 200.9)"/><path d="M 400.0 190.4 m -6 0 q 6 12 12 0 q -6 -6 -12 0 Z" fill="#b03a48" opacity="0.275" transform="rotate(360 400.0 190.4)"/><path d="M 480.1 200.9 m -6 0 q 6 -12 12 0 q -6 6 -12 0 Z" fill="#b03a48" opacity="0.275" transform="rotate(375 480.1 200.9)"/><path d="M 554.8 231.9 m -6 0 q 6 12 12 0 q -6 -6 -12 0 Z" fill="#b03a48" opacity="0.275" transform="rotate(390.00000000000006 554.8 231.9)"/><path d="M 618.9 281.1 m -6 0 q 6 -12 12 0 q -6 6 -12 0 Z" fill="#b03a48" opacity="0.275" transform="rotate(405 618.9 281.1)"/><path d="M 668.1 345.2 m -6 0 q 6 12 12 0 q -6 -6 -12 0 Z" fill="#b03a48" opacity="0.275" transform="rotate(419.99999999999994 668.1 345.2)"/><path d="M 699.1 419.9 m -6 0 q 6 -12 12 0 q -6 6 -12 0 Z" fill="#b03a48" opacity="0.275" transform="rotate(435 699.1 419.9)"/><circle cx="644.8" cy="500.0" r="3" fill="#b03a48" opacity="0.35"/><circle cx="612.0" cy="622.4" r="3" fill="#b03a48" opacity="0.35"/><circle cx="522.4" cy="712.0" r="3" fill="#b03a48" opacity="0.35"/><circle cx="400.0" cy="744.8" r="3" fill="#b03a48" opacity="0.35"/><circle cx="277.6" cy="712.0" r="3" fill="#b03a48" opacity="0.35"/><circle cx="188.0" cy="622.4" r="3" fill="#b03a48" opacity="0.35"/><circle cx="155.2" cy="500.0" r="3" fill="#b03a48" opacity="0.35"/><circle cx="188.0" cy="377.6" r="3" fill="#b03a48" opacity="0.35"/><circle cx="277.6" cy="288.0" r="3" fill="#b03a48" opacity="0.35"/><circle cx="400.0" cy="255.2" r="3" fill="#b03a48" opacity="0.35"/><circle cx="522.4" cy="288.0" r="3" fill="#b03a48" opacity="0.35"/><circle cx="612.0" cy="377.6" r="3" fill="#b03a48" opacity="0.35"/></g><g transform="translate(400 640) scale(2.2)"><path d="M -34 -40 Q -44 -6 0 0 Q 44 -6 34 -40 Q 40 -58 24 -64 L -24 -64 Q -40 -58 -34 -40 Z" fill="#d4a643" /><path d="M -24 -64 L 24 -64 L 20 -74 L -20 -74 Z" fill="#b08a2e" /><ellipse cx="0" cy="-78" rx="22" ry="7" fill="#4a6b3a" /><ellipse cx="-14" cy="-88" rx="5" ry="12" fill="#4a6b3a" transform="rotate(-33.6 -14 -88)"/><ellipse cx="-7" cy="-88" rx="5" ry="12" fill="#4a6b3a" transform="rotate(-16.8 -7 -88)"/><ellipse cx="0" cy="-88" rx="5" ry="12" fill="#4a6b3a" transform="rotate(0 0 -88)"/><ellipse cx="7" cy="-88" rx="5" ry="12" fill="#4a6b3a" transform="rotate(16.8 7 -88)"/><ellipse cx="14" cy="-88" rx="5" ry="12" fill="#4a6b3a" transform="rotate(33.6 14 -88)"/><circle cx="0.0" cy="-96.0" r="9" fill="#f2b134" /><path d="M -30 -34 q 30 12 60 0" fill="none" stroke="#b08a2e" stroke-width="3"/><circle cx="0.0" cy="-22.0" r="4" fill="#b08a2e" /><circle cx="-14.0" cy="-26.0" r="3" fill="#b08a2e" /><circle cx="14.0" cy="-26.0" r="3" fill="#b08a2e" /></g><g ><path d="M 80 120 Q 240 212 400 80" fill="none" stroke="#4a6b3a" stroke-width="2.5"/><g ><circle cx="84.4" cy="120.0" r="3.6" fill="#e8862e" /><circle cx="83.1" cy="123.1" r="3.6" fill="#e8862e" /><circle cx="80.0" cy="124.4" r="3.6" fill="#e8862e" /><circle cx="76.9" cy="123.1" r="3.6" fill="#e8862e" /><circle cx="75.6" cy="120.0" r="3.6" fill="#e8862e" /><circle cx="76.9" cy="116.9" r="3.6" fill="#e8862e" /><circle cx="80.0" cy="115.6" r="3.6" fill="#e8862e" /><circle cx="83.1" cy="116.9" r="3.6" fill="#e8862e" /><circle cx="80.0" cy="120.0" r="4.4" fill="#f2b134" /><circle cx="80.0" cy="120.0" r="1.76" fill="#e8862e" /></g><g ><circle cx="121.1" cy="137.7" r="4.5" fill="#e8862e" /><circle cx="119.4" cy="141.6" r="4.5" fill="#e8862e" /><circle cx="115.6" cy="143.2" r="4.5" fill="#e8862e" /><circle cx="111.7" cy="141.6" r="4.5" fill="#e8862e" /><circle cx="110.1" cy="137.7" r="4.5" fill="#e8862e" /><circle cx="111.7" cy="133.8" r="4.5" fill="#e8862e" /><circle cx="115.6" cy="132.2" r="4.5" fill="#e8862e" /><circle cx="119.4" cy="133.8" r="4.5" fill="#e8862e" /><circle cx="115.6" cy="137.7" r="5.5" fill="#f2b134" /><circle cx="115.6" cy="137.7" r="2.2" fill="#e8862e" /></g><g ><circle cx="155.5" cy="149.8" r="3.6" fill="#e8862e" /><circle cx="154.2" cy="152.9" r="3.6" fill="#e8862e" /><circle cx="151.1" cy="154.2" r="3.6" fill="#e8862e" /><circle cx="148.0" cy="152.9" r="3.6" fill="#e8862e" /><circle cx="146.7" cy="149.8" r="3.6" fill="#e8862e" /><circle cx="148.0" cy="146.7" r="3.6" fill="#e8862e" /><circle cx="151.1" cy="145.4" r="3.6" fill="#e8862e" /><circle cx="154.2" cy="146.7" r="3.6" fill="#e8862e" /><circle cx="151.1" cy="149.8" r="4.4" fill="#f2b134" /><circle cx="151.1" cy="149.8" r="1.76" fill="#e8862e" /></g><g ><circle cx="192.2" cy="156.4" r="4.5" fill="#e8862e" /><circle cx="190.6" cy="160.3" r="4.5" fill="#e8862e" /><circle cx="186.7" cy="161.9" r="4.5" fill="#e8862e" /><circle cx="182.8" cy="160.3" r="4.5" fill="#e8862e" /><circle cx="181.2" cy="156.4" r="4.5" fill="#e8862e" /><circle cx="182.8" cy="152.6" r="4.5" fill="#e8862e" /><circle cx="186.7" cy="150.9" r="4.5" fill="#e8862e" /><circle cx="190.6" cy="152.6" r="4.5" fill="#e8862e" /><circle cx="186.7" cy="156.4" r="5.5" fill="#f2b134" /><circle cx="186.7" cy="156.4" r="2.2" fill="#e8862e" /></g><g ><circle cx="226.6" cy="157.5" r="3.6" fill="#e8862e" /><circle cx="225.3" cy="160.6" r="3.6" fill="#e8862e" /><circle cx="222.2" cy="161.9" r="3.6" fill="#e8862e" /><circle cx="219.1" cy="160.6" r="3.6" fill="#e8862e" /><circle cx="217.8" cy="157.5" r="3.6" fill="#e8862e" /><circle cx="219.1" cy="154.4" r="3.6" fill="#e8862e" /><circle cx="222.2" cy="153.1" r="3.6" fill="#e8862e" /><circle cx="225.3" cy="154.4" r="3.6" fill="#e8862e" /><circle cx="222.2" cy="157.5" r="4.4" fill="#f2b134" /><circle cx="222.2" cy="157.5" r="1.76" fill="#e8862e" /></g><g ><circle cx="263.3" cy="153.1" r="4.5" fill="#e8862e" /><circle cx="261.7" cy="157.0" r="4.5" fill="#e8862e" /><circle cx="257.8" cy="158.6" r="4.5" fill="#e8862e" /><circle cx="253.9" cy="157.0" r="4.5" fill="#e8862e" /><circle cx="252.3" cy="153.1" r="4.5" fill="#e8862e" /><circle cx="253.9" cy="149.2" r="4.5" fill="#e8862e" /><circle cx="257.8" cy="147.6" r="4.5" fill="#e8862e" /><circle cx="261.7" cy="149.2" r="4.5" fill="#e8862e" /><circle cx="257.8" cy="153.1" r="5.5" fill="#f2b134" /><circle cx="257.8" cy="153.1" r="2.2" fill="#e8862e" /></g><g ><circle cx="297.7" cy="143.1" r="3.6" fill="#e8862e" /><circle cx="296.4" cy="146.2" r="3.6" fill="#e8862e" /><circle cx="293.3" cy="147.5" r="3.6" fill="#e8862e" /><circle cx="290.2" cy="146.2" r="3.6" fill="#e8862e" /><circle cx="288.9" cy="143.1" r="3.6" fill="#e8862e" /><circle cx="290.2" cy="140.0" r="3.6" fill="#e8862e" /><circle cx="293.3" cy="138.7" r="3.6" fill="#e8862e" /><circle cx="296.4" cy="140.0" r="3.6" fill="#e8862e" /><circle cx="293.3" cy="143.1" r="4.4" fill="#f2b134" /><circle cx="293.3" cy="143.1" r="1.76" fill="#e8862e" /></g><g ><circle cx="334.4" cy="127.6" r="4.5" fill="#e8862e" /><circle cx="332.8" cy="131.5" r="4.5" fill="#e8862e" /><circle cx="328.9" cy="133.1" r="4.5" fill="#e8862e" /><circle cx="325.0" cy="131.5" r="4.5" fill="#e8862e" /><circle cx="323.4" cy="127.6" r="4.5" fill="#e8862e" /><circle cx="325.0" cy="123.7" r="4.5" fill="#e8862e" /><circle cx="328.9" cy="122.1" r="4.5" fill="#e8862e" /><circle cx="332.8" cy="123.7" r="4.5" fill="#e8862e" /><circle cx="328.9" cy="127.6" r="5.5" fill="#f2b134" /><circle cx="328.9" cy="127.6" r="2.2" fill="#e8862e" /></g><g ><circle cx="368.8" cy="106.6" r="3.6" fill="#e8862e" /><circle cx="367.6" cy="109.7" r="3.6" fill="#e8862e" /><circle cx="364.4" cy="111.0" r="3.6" fill="#e8862e" /><circle cx="361.3" cy="109.7" r="3.6" fill="#e8862e" /><circle cx="360.0" cy="106.6" r="3.6" fill="#e8862e" /><circle cx="361.3" cy="103.5" r="3.6" fill="#e8862e" /><circle cx="364.4" cy="102.2" r="3.6" fill="#e8862e" /><circle cx="367.6" cy="103.5" r="3.6" fill="#e8862e" /><circle cx="364.4" cy="106.6" r="4.4" fill="#f2b134" /><circle cx="364.4" cy="106.6" r="1.76" fill="#e8862e" /></g><g ><circle cx="405.5" cy="80.0" r="4.5" fill="#e8862e" /><circle cx="403.9" cy="83.9" r="4.5" fill="#e8862e" /><circle cx="400.0" cy="85.5" r="4.5" fill="#e8862e" /><circle cx="396.1" cy="83.9" r="4.5" fill="#e8862e" /><circle cx="394.5" cy="80.0" r="4.5" fill="#e8862e" /><circle cx="396.1" cy="76.1" r="4.5" fill="#e8862e" /><circle cx="400.0" cy="74.5" r="4.5" fill="#e8862e" /><circle cx="403.9" cy="76.1" r="4.5" fill="#e8862e" /><circle cx="400.0" cy="80.0" r="5.5" fill="#f2b134" /><circle cx="400.0" cy="80.0" r="2.2" fill="#e8862e" /></g></g><g ><path d="M 400 80 Q 560 212 720 120" fill="none" stroke="#4a6b3a" stroke-width="2.5"/><g ><circle cx="404.4" cy="80.0" r="3.6" fill="#e8862e" /><circle cx="403.1" cy="83.1" r="3.6" fill="#e8862e" /><circle cx="400.0" cy="84.4" r="3.6" fill="#e8862e" /><circle cx="396.9" cy="83.1" r="3.6" fill="#e8862e" /><circle cx="395.6" cy="80.0" r="3.6" fill="#e8862e" /><circle cx="396.9" cy="76.9" r="3.6" fill="#e8862e" /><circle cx="400.0" cy="75.6" r="3.6" fill="#e8862e" /><circle cx="403.1" cy="76.9" r="3.6" fill="#e8862e" /><circle cx="400.0" cy="80.0" r="4.4" fill="#f2b134" /><circle cx="400.0" cy="80.0" r="1.76" fill="#e8862e" /></g><g ><circle cx="441.1" cy="106.6" r="4.5" fill="#e8862e" /><circle cx="439.4" cy="110.5" r="4.5" fill="#e8862e" /><circle cx="435.6" cy="112.1" r="4.5" fill="#e8862e" /><circle cx="431.7" cy="110.5" r="4.5" fill="#e8862e" /><circle cx="430.1" cy="106.6" r="4.5" fill="#e8862e" /><circle cx="431.7" cy="102.7" r="4.5" fill="#e8862e" /><circle cx="435.6" cy="101.1" r="4.5" fill="#e8862e" /><circle cx="439.4" cy="102.7" r="4.5" fill="#e8862e" /><circle cx="435.6" cy="106.6" r="5.5" fill="#f2b134" /><circle cx="435.6" cy="106.6" r="2.2" fill="#e8862e" /></g><g ><circle cx="475.5" cy="127.6" r="3.6" fill="#e8862e" /><circle cx="474.2" cy="130.7" r="3.6" fill="#e8862e" /><circle cx="471.1" cy="132.0" r="3.6" fill="#e8862e" /><circle cx="468.0" cy="130.7" r="3.6" fill="#e8862e" /><circle cx="466.7" cy="127.6" r="3.6" fill="#e8862e" /><circle cx="468.0" cy="124.5" r="3.6" fill="#e8862e" /><circle cx="471.1" cy="123.2" r="3.6" fill="#e8862e" /><circle cx="474.2" cy="124.5" r="3.6" fill="#e8862e" /><circle cx="471.1" cy="127.6" r="4.4" fill="#f2b134" /><circle cx="471.1" cy="127.6" r="1.76" fill="#e8862e" /></g><g ><circle cx="512.2" cy="143.1" r="4.5" fill="#e8862e" /><circle cx="510.6" cy="147.0" r="4.5" fill="#e8862e" /><circle cx="506.7" cy="148.6" r="4.5" fill="#e8862e" /><circle cx="502.8" cy="147.0" r="4.5" fill="#e8862e" /><circle cx="501.2" cy="143.1" r="4.5" fill="#e8862e" /><circle cx="502.8" cy="139.2" r="4.5" fill="#e8862e" /><circle cx="506.7" cy="137.6" r="4.5" fill="#e8862e" /><circle cx="510.6" cy="139.2" r="4.5" fill="#e8862e" /><circle cx="506.7" cy="143.1" r="5.5" fill="#f2b134" /><circle cx="506.7" cy="143.1" r="2.2" fill="#e8862e" /></g><g ><circle cx="546.6" cy="153.1" r="3.6" fill="#e8862e" /><circle cx="545.3" cy="156.2" r="3.6" fill="#e8862e" /><circle cx="542.2" cy="157.5" r="3.6" fill="#e8862e" /><circle cx="539.1" cy="156.2" r="3.6" fill="#e8862e" /><circle cx="537.8" cy="153.1" r="3.6" fill="#e8862e" /><circle cx="539.1" cy="150.0" r="3.6" fill="#e8862e" /><circle cx="542.2" cy="148.7" r="3.6" fill="#e8862e" /><circle cx="545.3" cy="150.0" r="3.6" fill="#e8862e" /><circle cx="542.2" cy="153.1" r="4.4" fill="#f2b134" /><circle cx="542.2" cy="153.1" r="1.76" fill="#e8862e" /></g><g ><circle cx="583.3" cy="157.5" r="4.5" fill="#e8862e" /><circle cx="581.7" cy="161.4" r="4.5" fill="#e8862e" /><circle cx="577.8" cy="163.0" r="4.5" fill="#e8862e" /><circle cx="573.9" cy="161.4" r="4.5" fill="#e8862e" /><circle cx="572.3" cy="157.5" r="4.5" fill="#e8862e" /><circle cx="573.9" cy="153.6" r="4.5" fill="#e8862e" /><circle cx="577.8" cy="152.0" r="4.5" fill="#e8862e" /><circle cx="581.7" cy="153.6" r="4.5" fill="#e8862e" /><circle cx="577.8" cy="157.5" r="5.5" fill="#f2b134" /><circle cx="577.8" cy="157.5" r="2.2" fill="#e8862e" /></g><g ><circle cx="617.7" cy="156.4" r="3.6" fill="#e8862e" /><circle cx="616.4" cy="159.6" r="3.6" fill="#e8862e" /><circle cx="613.3" cy="160.8" r="3.6" fill="#e8862e" /><circle cx="610.2" cy="159.6" r="3.6" fill="#e8862e" /><circle cx="608.9" cy="156.4" r="3.6" fill="#e8862e" /><circle cx="610.2" cy="153.3" r="3.6" fill="#e8862e" /><circle cx="613.3" cy="152.0" r="3.6" fill="#e8862e" /><circle cx="616.4" cy="153.3" r="3.6" fill="#e8862e" /><circle cx="613.3" cy="156.4" r="4.4" fill="#f2b134" /><circle cx="613.3" cy="156.4" r="1.76" fill="#e8862e" /></g><g ><circle cx="654.4" cy="149.8" r="4.5" fill="#e8862e" /><circle cx="652.8" cy="153.7" r="4.5" fill="#e8862e" /><circle cx="648.9" cy="155.3" r="4.5" fill="#e8862e" /><circle cx="645.0" cy="153.7" r="4.5" fill="#e8862e" /><circle cx="643.4" cy="149.8" r="4.5" fill="#e8862e" /><circle cx="645.0" cy="145.9" r="4.5" fill="#e8862e" /><circle cx="648.9" cy="144.3" r="4.5" fill="#e8862e" /><circle cx="652.8" cy="145.9" r="4.5" fill="#e8862e" /><circle cx="648.9" cy="149.8" r="5.5" fill="#f2b134" /><circle cx="648.9" cy="149.8" r="2.2" fill="#e8862e" /></g><g ><circle cx="688.8" cy="137.7" r="3.6" fill="#e8862e" /><circle cx="687.6" cy="140.8" r="3.6" fill="#e8862e" /><circle cx="684.4" cy="142.1" r="3.6" fill="#e8862e" /><circle cx="681.3" cy="140.8" r="3.6" fill="#e8862e" /><circle cx="680.0" cy="137.7" r="3.6" fill="#e8862e" /><circle cx="681.3" cy="134.6" r="3.6" fill="#e8862e" /><circle cx="684.4" cy="133.3" r="3.6" fill="#e8862e" /><circle cx="687.6" cy="134.6" r="3.6" fill="#e8862e" /><circle cx="684.4" cy="137.7" r="4.4" fill="#f2b134" /><circle cx="684.4" cy="137.7" r="1.76" fill="#e8862e" /></g><g ><circle cx="725.5" cy="120.0" r="4.5" fill="#e8862e" /><circle cx="723.9" cy="123.9" r="4.5" fill="#e8862e" /><circle cx="720.0" cy="125.5" r="4.5" fill="#e8862e" /><circle cx="716.1" cy="123.9" r="4.5" fill="#e8862e" /><circle cx="714.5" cy="120.0" r="4.5" fill="#e8862e" /><circle cx="716.1" cy="116.1" r="4.5" fill="#e8862e" /><circle cx="720.0" cy="114.5" r="4.5" fill="#e8862e" /><circle cx="723.9" cy="116.1" r="4.5" fill="#e8862e" /><circle cx="720.0" cy="120.0" r="5.5" fill="#f2b134" /><circle cx="720.0" cy="120.0" r="2.2" fill="#e8862e" /></g></g><text x="400" y="920" text-anchor="middle" font-family="Georgia,serif" font-size="28" fill="#7a1f2b" letter-spacing="8">MANGAL KALASH</text></svg>