<svg xmlns="http://www.w3.org/2000/svg" viewBox="0 0 600 600" preserveAspectRatio="xMidYMid slice"><rect x="0" y="0" width="600" height="600" rx="0" fill="#0f4437" /><circle cx="300.0" cy="300.0" r="218" fill="#0d3b30" /><circle cx="300.0" cy="300.0" r="218" fill="none" stroke="#c9a227" stroke-width="2.5"/><g transform="translate(300 316) scale(1.05) rotate(-14)"><rect x="-70" y="-46" width="140" height="92" rx="40" fill="#7a5c1c"/><ellipse cx="-70" cy="0" rx="14" ry="46" fill="#f4e9d0" /><ellipse cx="-70" cy="0" rx="14" ry="46" fill="none" stroke="#e6c96a" stroke-width="4"/><ellipse cx="70" cy="0" rx="14" ry="46" fill="#f4e9d0" /><ellipse cx="70" cy="0" rx="14" ry="46" fill="none" stroke="#e6c96a" stroke-width="4"/><path d="M -62 -34 Q 0 -14 62 -34" fill="none" stroke="#e6c96a" stroke-width="3"/><path d="M -62 -8 Q 0 16 62 -8" fill="none" stroke="#e6c96a" stroke-width="3"/><path d="M -62 18 Q 0 -2 62 18" fill="none" stroke="#e6c96a" stroke-width="3"/><line x1="34" y1="-72" x2="66" y2="-30" stroke="#8a6d3b" stroke-width="5" stroke-linecap="round"/><circle cx="34.0" cy="-72.0" r="6" fill="#8a6d3b" /></g><path d="M 176 168 Q 178.16 177.84 188 180 Q 178.16 182.16 176 192 Q 173.84 182.16 164 180 Q 173.84 177.84 176 168 Z" fill="#e6c96a" /><path d="M 420 160 Q 422.16 169.84 432 172 Q 422.16 174.16 420 184 Q 417.84 174.16 408 172 Q 417.84 169.84 420 160 Z" fill="#e6c96a" /><path d="M 452 248 Q 454.16 257.84 464 260 Q 454.16 262.16 452 272 Q 449.84 262.16 440 260 Q 449.84 257.84 452 248 Z" fill="#e6c96a" /></svg>