<svg xmlns="http://www.w3.org/2000/svg" viewBox="0 0 800 800" preserveAspectRatio="xMidYMid slice"><rect x="0" y="0" width="800" height="800" rx="0" fill="#7d92a1" /><circle cx="400.0" cy="400.0" r="330" fill="#8fa2b0" /><circle cx="400.0" cy="400.0" r="330" fill="none" stroke="#fbf9f4" stroke-width="2" opacity=".6"/><g transform="translate(320 360) scale(2.2,2.2)"><path d="M 0 0 Q 20 -16 44 -8 Q 30 2 16 4 Q 30 12 22 26 Q 8 20 2 8 Q -18 14 -34 4 Q -18 -2 -8 -2 Q -16 -12 -6 -18 Q 0 -10 0 0 Z" fill="#fbf9f4" /></g><g transform="translate(500 440) scale(-1.8,1.8)"><path d="M 0 0 Q 20 -16 44 -8 Q 30 2 16 4 Q 30 12 22 26 Q 8 20 2 8 Q -18 14 -34 4 Q -18 -2 -8 -2 Q -16 -12 -6 -18 Q 0 -10 0 0 Z" fill="#fbf9f4" /></g><path d="M 340 560 q 60 40 120 0" fill="none" stroke="#e8c9c0" stroke-width="6" stroke-linecap="round"/><circle cx="340.0" cy="560.0" r="6" fill="#e8c9c0" /><circle cx="460.0" cy="560.0" r="6" fill="#e8c9c0" /><text x="400" y="680" text-anchor="middle" font-family="Georgia,serif" font-size="24" fill="#fbf9f4" letter-spacing="8">TWO BECOME ONE</text></svg>